<svg width="65" height="65" viewBox="0 0 65 65" fill="none" xmlns="http://www.w3.org/2000/svg">
<path fill-rule="evenodd" clip-rule="evenodd" d="M23.2227 63.1348C11.3563 63.1348 1.22266 61.2883 1.22266 53.893C1.22266 46.4978 11.292 39.6709 23.2227 39.6709C35.089 39.6709 45.2227 46.4316 45.2227 53.8269C45.2227 61.2191 35.1533 63.1348 23.2227 63.1348Z" stroke="#8EBEF7" stroke-width="2.4448" stroke-linecap="round" stroke-linejoin="round"/>
<path fill-rule="evenodd" clip-rule="evenodd" d="M23.1995 29.423C30.9867 29.423 37.2983 23.1114 37.2983 15.3242C37.2983 7.53693 30.9867 1.22241 23.1995 1.22241C15.4123 1.22241 9.09774 7.53693 9.09774 15.3242C9.07144 23.0851 15.3392 29.3967 23.1001 29.423C23.1352 29.423 23.1673 29.423 23.1995 29.423Z" stroke="#8EBEF7" stroke-width="2.4448" stroke-linecap="round" stroke-linejoin="round"/>
<path d="M55.4727 21.7173V30.7173H64.4727V32.7173H55.4727V41.7173H53.4727V32.7173H44.4727V30.7173H53.4727V21.7173H55.4727Z" fill="#8EBEF7" stroke="#8EBEF7" stroke-width="0.5"/>
</svg>
